<svg id="Layer_1" data-name="Layer 1" xmlns="http://www.w3.org/2000/svg" viewBox="0 0 241.7 383.86"><defs><style>.cls-1,.cls-2{fill:none;stroke:#000;stroke-width:12px;}.cls-1{stroke-linecap:round;stroke-linejoin:round;}.cls-2{stroke-miterlimit:10;}</style></defs><title>scroll__button-black</title><path class="cls-1" d="M386,403.8a104.3,104.3,0,0,1,9.4-33.4,91.46,91.46,0,0,1,43-43.6c15.5-7.6,31.9-11.1,48.9-12.2,1.1-.1,2.1-0.4,3.2-0.5h18.9c7.4,1,14.9,1.6,22.2,3,20.2,3.7,38.4,11.7,53.3,26,15.8,15.2,24.9,34,28.2,55.6a137.83,137.83,0,0,1,1.5,21.3c0.1,23.4.1,46.9,0.1,70.3" transform="translate(-379.1 -308.1)"/><path class="cls-1" d="M614.8,508.6h0" transform="translate(-379.1 -308.1)"/><path class="cls-1" d="M614.8,527v55.1c0,16.7-3,32.7-10.2,47.8-9.3,19.3-23.4,33.9-42.8,43.3-22.1,10.8-45.7,13.5-70,12.6-18.4-.7-36.3-4.1-53-12.2-22.8-11.1-38.2-28.8-47.1-52.4-4.8-12.8-6.6-26.2-6.6-39.9V426" transform="translate(-379.1 -308.1)"/><path class="cls-2" d="M484.8,411.8c0,5.3-.1,10.6,0,16,0.2,9.1,6.5,15.7,15,15.8,8.7,0.1,15.3-6.5,15.4-15.8q0.15-15.6,0-31.2c-0.1-9.1-6.5-15.7-15-15.8-8.7-.1-15.2,6.6-15.4,15.8C484.7,401.7,484.8,406.7,484.8,411.8Z" transform="translate(-379.1 -308.1)"/></svg>